<svg width="11" height="17" viewBox="0 0 11 17" fill="none" xmlns="http://www.w3.org/2000/svg">
<path d="M5.64909 16.493L5.75089 16.5C6.13059 16.5 6.44439 16.218 6.49399 15.852L6.50089 15.75L6.49999 3.054L9.71939 6.27499C9.98559 6.54199 10.4023 6.566 10.696 6.348L10.7801 6.276C11.0465 6.009 11.0709 5.59299 10.8531 5.29899L10.7806 5.21499L6.28429 0.714991C6.01819 0.448991 5.60149 0.423993 5.30779 0.641993L5.22369 0.714991L0.719887 5.21499C0.426887 5.50699 0.426688 5.98199 0.719388 6.27499C0.985588 6.54199 1.40229 6.566 1.69599 6.348L1.78009 6.276L4.99999 3.05799L5.00089 15.75C5.00089 16.13 5.28299 16.443 5.64909 16.493Z" fill="#2CB43C"/>
</svg>
