<svg width="11" height="17" viewBox="0 0 11 17" fill="none" xmlns="http://www.w3.org/2000/svg">
<path d="M5.649 0.507004L5.75101 0.5C6.13101 0.5 6.444 0.781995 6.494 1.14799L6.50101 1.25L6.5 13.946L9.71899 10.725C9.98599 10.458 10.402 10.434 10.696 10.652L10.78 10.724C11.046 10.991 11.071 11.407 10.853 11.701L10.781 11.785L6.284 16.285C6.018 16.551 5.602 16.576 5.308 16.358L5.224 16.285L0.720001 11.785C0.427001 11.493 0.426994 11.018 0.718994 10.725C0.985994 10.458 1.402 10.434 1.696 10.652L1.78 10.724L5 13.942L5.00101 1.25C5.00101 0.87 5.283 0.557004 5.649 0.507004Z" fill="#F44336"/>
</svg>
