<svg width="20" height="19" viewBox="0 0 20 19" fill="none" xmlns="http://www.w3.org/2000/svg">
<path d="M11.925 0.502991C12.723 0.502991 13.461 0.925976 13.865 1.61298L14.679 3H16.75C18.545 3 20 4.455 20 6.25V15.75C20 17.545 18.545 19 16.75 19H3.25C1.455 19 0 17.545 0 15.75V6.25C0 4.455 1.455 3 3.25 3H5.32999L6.20499 1.57599C6.61399 0.908989 7.34001 0.502991 8.12201 0.502991H11.925ZM10 6C7.515 6 5.5 8.015 5.5 10.5C5.5 12.985 7.515 15 10 15C12.485 15 14.5 12.985 14.5 10.5C14.5 8.015 12.485 6 10 6ZM10 7.5C11.657 7.5 13 8.843 13 10.5C13 12.157 11.657 13.5 10 13.5C8.343 13.5 7 12.157 7 10.5C7 8.843 8.343 7.5 10 7.5Z" fill="#242424"/>
</svg>
